<?xml version="1.0" encoding="iso-8859-1"?>
<!-- Generator: Adobe Illustrator 19.0.0, SVG Export Plug-In . SVG Version: 6.00 Build 0)  -->
<svg version="1.1" id="Capa_1" xmlns="http://www.w3.org/2000/svg" xmlns:xlink="http://www.w3.org/1999/xlink" x="0px" y="0px"
	 viewBox="0 0 511.898 511.898" style="enable-background:new 0 0 511.898 511.898;" xml:space="preserve">
<g>
	<g>
		<g>
			<path d="M122.67,176.333c1.722,2.96,5.388,4.159,8.526,2.789v31.731c-0.001,2.407,1.284,4.632,3.368,5.836l56.585,32.678
				c2.085,1.204,4.653,1.203,6.737,0s3.368-3.428,3.368-5.835v-20.842c1.947,0.858,4.186,0.741,6.033-0.316l14.145-8.059
				c1.561-0.889,2.703-2.364,3.171-4.099s0.224-3.584-0.678-5.138l-51.974-89.507c-1.862-3.2-5.955-4.302-9.171-2.467
				l-51.776,29.605c-1.558,0.89-2.697,2.365-3.164,4.098c-0.467,1.733-0.223,3.58,0.677,5.133L122.67,176.333z M163.657,128.122
				l45.204,77.842l-2.434,1.388l-6.079-10.48c-1.529-2.635-4.637-3.917-7.579-3.125c-2.942,0.792-4.987,3.46-4.987,6.507v31.605
				l-43.112-24.895v-39.382c0-2.399-1.276-4.616-3.349-5.823s-4.632-1.219-6.717-0.033l-3.632,2.066l-7.395-12.757L163.657,128.122z
				"/>
			<path d="M430.954,181.691c-0.019-0.281-0.056-0.561-0.111-0.838c-0.116-0.668-0.334-1.315-0.645-1.918
				c-0.035-0.065-0.031-0.137-0.068-0.201l-0.047-0.053c-0.41-0.671-0.936-1.264-1.551-1.752c-0.134-0.11-0.262-0.211-0.403-0.31
				c-0.17-0.12-0.31-0.273-0.492-0.378L294.775,99.572V54.287c0-0.15-0.048-0.289-0.058-0.437c-0.019-0.282-0.056-0.563-0.111-0.84
				c-0.113-0.596-0.308-1.174-0.578-1.718c-0.064-0.13-0.061-0.273-0.135-0.4c-0.082-0.141-0.22-0.218-0.31-0.351
				c-0.323-0.478-0.706-0.911-1.141-1.29c-0.232-0.207-0.479-0.397-0.739-0.569c-0.103-0.068-0.183-0.161-0.291-0.224L260.018,30.3
				c-0.243-0.1-0.491-0.184-0.745-0.253c-0.455-0.216-0.933-0.378-1.425-0.484c-0.853-0.11-1.716-0.102-2.567,0.023
				c-0.366,0.09-0.724,0.211-1.07,0.362c-0.329,0.082-0.652,0.191-0.963,0.326l-32.757,18.914c-0.683,0.412-1.286,0.944-1.78,1.57
				c-0.128,0.154-0.244,0.303-0.357,0.467c-0.447,0.62-0.785,1.311-0.998,2.045l-0.009,0.065c-0.118,0.479-0.183,0.971-0.194,1.464
				L123.722,0.8c-0.228-0.092-0.462-0.171-0.7-0.236c-0.451-0.212-0.925-0.372-1.412-0.477c-0.826-0.115-1.665-0.115-2.491,0
				c-0.492,0.106-0.97,0.267-1.424,0.482c-0.232,0.064-0.46,0.141-0.683,0.231l-32.75,18.915c-0.683,0.412-1.286,0.944-1.78,1.57
				c-0.128,0.154-0.244,0.303-0.357,0.467c-0.447,0.62-0.785,1.311-0.998,2.045l-0.009,0.065c-0.146,0.551-0.221,1.119-0.224,1.689
				v204.342c-0.001,2.407,1.283,4.632,3.368,5.836l132.862,76.711v80.257c0.325,12.1-2.288,24.099-7.615,34.969
				c-1.003,0.187-1.969,0.537-2.859,1.037c-3.479,2.192-5.489,6.105-5.244,10.21v29.947c-0.001,2.407,1.284,4.632,3.368,5.836
				l62.882,36.303l0.025,0.01c0.375,0.198,0.769,0.36,1.174,0.484c0.153,0.053,0.295,0.141,0.45,0.183
				c0.381,0.084,0.769,0.134,1.159,0.151c0.188,0.016,0.372,0.073,0.56,0.073l0.003,0l0.003,0c1.18,0.001,2.34-0.31,3.362-0.901
				l32.757-18.914c0.196-0.154,0.383-0.318,0.56-0.494c0.423-0.292,0.809-0.633,1.152-1.016c0.518-0.678,0.939-1.425,1.252-2.219
				c0.112-0.376,0.19-0.762,0.232-1.153c0.088-0.313,0.153-0.632,0.192-0.955V456.3c-0.123-5.315-2.352-10.363-6.197-14.035
				l-0.547-1.61c-5.668-15.632-8.715-32.092-9.02-48.717v-34.667l93.395,53.923l0.025,0.01c0.375,0.198,0.768,0.36,1.174,0.484
				c0.153,0.053,0.295,0.141,0.45,0.183c0.381,0.084,0.769,0.134,1.159,0.151c0.188,0.016,0.372,0.073,0.56,0.073l0.003,0l0.003,0
				c1.18,0.001,2.34-0.31,3.362-0.901l32.757-18.914c0.24-0.183,0.466-0.382,0.678-0.597c0.336-0.244,0.648-0.519,0.932-0.822
				c0.523-0.655,0.953-1.38,1.278-2.153c0.181-0.533,0.292-1.086,0.332-1.648c0.02-0.211,0.123-0.393,0.123-0.609V182.076
				C431.005,181.944,430.962,181.822,430.954,181.691z M256.613,43.892l17.947,10.382l-19.258,11.12l-17.965-10.371L256.613,43.892z
				 M281.301,65.942v33.622l-19.263,11.119V77.065L281.301,65.942z M248.564,77.063v33.618l-11.65-6.723l-6.317-3.647l0-33.617
				L248.564,77.063z M120.366,14.424l96.758,55.922v22.186L101.104,25.549L120.366,14.424z M264.288,493.491l-49.408-28.52
				l0.013-21.592l34.461,19.893l12.888,7.442c1.228,1.187,1.959,2.795,2.046,4.5V493.491z M241.677,410.76l6.954,4.014
				c0.475,12.072,2.327,24.051,5.52,35.703l-31.684-18.296c4.155-8.863,6.718-18.387,7.572-28.138L241.677,410.76z M230.597,388.803
				v-68.583l12.948,7.472l5.019,2.898v68.584l-6.606-3.812L230.597,388.803z M269.621,454.98
				c-4.288-13.052-6.776-26.628-7.394-40.353l19.623-11.331c1.261,13.52,4.137,26.84,8.568,39.675L269.621,454.98z M262.038,399.175
				V338.37l19.263,11.122v38.56L262.038,399.175z M296.824,454.833c0.149,0.475,0.23,0.969,0.24,1.467v26.046l-19.302,11.146
				v-18.277c-0.067-2.851-0.753-5.653-2.011-8.213l4.607-2.661l0.112-0.065L296.824,454.833z M384.801,393.688L94.367,226.004
				V37.221l290.434,167.678V393.688z M391.539,193.23l-122.762-70.876l19.255-11.114l122.796,70.856L391.539,193.23z
				 M417.532,382.569l-19.257,11.119V204.901l19.257-11.115V382.569z"/>
			<path d="M278.268,300.688c1.016,1.99,2.954,3.345,5.171,3.618c0.275,0.034,0.552,0.051,0.829,0.053
				c1.944-0.001,3.792-0.84,5.072-2.303l58.934-67.368c2.404-2.806,2.1-7.024-0.682-9.456c-2.782-2.432-7.003-2.17-9.462,0.587
				l-52.388,59.888l-24.934-48.724c-1.693-3.314-5.752-4.627-9.066-2.934s-4.627,5.752-2.934,9.066L278.268,300.688z"/>
		</g>
	</g>
</g>
<g>
</g>
<g>
</g>
<g>
</g>
<g>
</g>
<g>
</g>
<g>
</g>
<g>
</g>
<g>
</g>
<g>
</g>
<g>
</g>
<g>
</g>
<g>
</g>
<g>
</g>
<g>
</g>
<g>
</g>
</svg>
